<svg width="103" height="28" viewBox="0 0 103 28" xmlns="http://www.w3.org/2000/svg">
    <g fill="#FF3B30" fill-rule="nonzero">
        <path d="M19.402 27.327h-7.339l-5.905-8.66H5.99v8.66H0V0h5.99v16.649h.084l5.736-7.316h7.255l-7.002 8.156zM38.889 18.583v1.429h-13.16c.084.505.169.925.422 1.345.253.42.59.757 1.012 1.093.422.337.844.505 1.35.673a4.79 4.79 0 0 0 1.518.252c.928 0 1.772-.168 2.362-.504.675-.336 1.181-.841 1.603-1.345l4.133 2.606c-.843 1.261-1.94 2.186-3.374 2.859-1.35.673-3.037 1.009-4.808 1.009-1.35 0-2.615-.252-3.88-.673-1.182-.42-2.278-1.009-3.206-1.85a8.211 8.211 0 0 1-2.11-2.942c-.505-1.178-.758-2.523-.758-4.037 0-1.429.253-2.774.759-4.036a7.843 7.843 0 0 1 2.109-3.027c.843-.84 1.94-1.513 3.121-1.933a11.375 11.375 0 0 1 3.88-.673c1.35 0 2.531.252 3.628.673 1.096.42 2.109 1.093 2.868 1.933.76.841 1.434 1.85 1.856 3.112.422 1.093.675 2.438.675 4.036zm-5.484-2.27c0-.926-.337-1.766-.928-2.44-.59-.672-1.518-1.008-2.699-1.008-.59 0-1.097.084-1.603.252-.506.168-.928.42-1.265.757-.338.336-.675.673-.844 1.093-.253.42-.337.84-.337 1.345h7.676zM53.735 27.327h-6.41L40.237 9.333h6.58l3.796 11.688h.085l3.796-11.688h6.326zM69.595 3.616c0 .42-.085.925-.253 1.26-.17.421-.422.758-.76 1.01-.337.252-.675.504-1.096.673a3.507 3.507 0 0 1-1.35.252 3.682 3.682 0 0 1-2.446-.925c-.675-.673-1.013-1.43-1.013-2.27 0-.42.085-.841.253-1.262.17-.42.422-.756.76-1.009.337-.252.674-.504 1.096-.672a3.507 3.507 0 0 1 1.35-.253c.506-.084.928 0 1.35.169.421.168.759.42 1.096.672.338.253.506.673.76 1.01.168.42.253.84.253 1.345zm-6.412 23.711V9.333h5.99v17.994h-5.99zM85.707 27.327V17.49c0-.504-.085-1.009-.169-1.429a4.852 4.852 0 0 0-.422-1.177c-.168-.336-.506-.589-.843-.841a2.883 2.883 0 0 0-1.35-.336c-.506 0-1.012.084-1.434.336-.422.168-.76.505-1.012.84-.253.337-.506.758-.59 1.262-.17.505-.17.925-.17 1.43v9.753h-5.989V9.333h5.736v2.523h.085c.253-.42.506-.757.843-1.177.338-.337.76-.673 1.266-.925s1.012-.505 1.518-.673a6.441 6.441 0 0 1 1.772-.252c1.18 0 2.277.252 3.12.673a5.709 5.709 0 0 1 2.025 1.681c.507.673.928 1.514 1.097 2.355.169.84.337 1.765.337 2.69v11.1h-5.82zM103 24.132c0 1.01-.337 1.85-1.097 2.523-.674.672-1.602 1.009-2.53 1.009a3.952 3.952 0 0 1-1.434-.253 3.54 3.54 0 0 1-1.181-.756c-.338-.337-.59-.673-.76-1.093a3.916 3.916 0 0 1-.253-1.43c0-.504.085-.925.253-1.345.17-.42.422-.841.76-1.177a3.54 3.54 0 0 1 1.18-.757 3.952 3.952 0 0 1 1.435-.252c1.012 0 1.856.336 2.53 1.009.675.672 1.097 1.513 1.097 2.522z"/>
    </g>
</svg>
